<mxfile host="app.diagrams.net" agent="Mozilla/5.0 (X11; Linux x86_64) AppleWebKit/537.36 (KHTML, like Gecko) Chrome/131.0.0.0 Safari/537.36" version="25.0.3">
  <diagram name="Página-1" id="gj87dT4wyO-14vwI0VJo">
    <mxGraphModel dx="1862" dy="551" grid="1" gridSize="10" guides="1" tooltips="1" connect="1" arrows="1" fold="1" page="1" pageScale="1" pageWidth="827" pageHeight="1169" math="0" shadow="0">
      <root>
        <mxCell id="0" />
        <mxCell id="1" parent="0" />
        <mxCell id="WLSEUAi24ckMVF-0yB9R-13" value="" style="edgeStyle=orthogonalEdgeStyle;rounded=0;orthogonalLoop=1;jettySize=auto;html=1;" edge="1" parent="1" source="WLSEUAi24ckMVF-0yB9R-10" target="WLSEUAi24ckMVF-0yB9R-12">
          <mxGeometry relative="1" as="geometry" />
        </mxCell>
        <mxCell id="WLSEUAi24ckMVF-0yB9R-10" value="Criar Perfil" style="rounded=1;whiteSpace=wrap;html=1;verticalAlign=middle;" vertex="1" parent="1">
          <mxGeometry x="-644" y="70" width="120" height="60" as="geometry" />
        </mxCell>
        <mxCell id="WLSEUAi24ckMVF-0yB9R-15" value="" style="edgeStyle=orthogonalEdgeStyle;rounded=0;orthogonalLoop=1;jettySize=auto;html=1;" edge="1" parent="1" source="WLSEUAi24ckMVF-0yB9R-12" target="WLSEUAi24ckMVF-0yB9R-14">
          <mxGeometry relative="1" as="geometry" />
        </mxCell>
        <mxCell id="WLSEUAi24ckMVF-0yB9R-12" value="Cadastros Relacionados" style="rounded=1;whiteSpace=wrap;html=1;verticalAlign=middle;" vertex="1" parent="1">
          <mxGeometry x="-494" y="70" width="120" height="60" as="geometry" />
        </mxCell>
        <mxCell id="WLSEUAi24ckMVF-0yB9R-17" value="" style="edgeStyle=orthogonalEdgeStyle;rounded=0;orthogonalLoop=1;jettySize=auto;html=1;" edge="1" parent="1" source="WLSEUAi24ckMVF-0yB9R-14" target="WLSEUAi24ckMVF-0yB9R-16">
          <mxGeometry relative="1" as="geometry" />
        </mxCell>
        <mxCell id="WLSEUAi24ckMVF-0yB9R-14" value="Avalia Presença nas Listas Restritivas" style="rounded=1;whiteSpace=wrap;html=1;verticalAlign=middle;" vertex="1" parent="1">
          <mxGeometry x="-344" y="70" width="120" height="60" as="geometry" />
        </mxCell>
        <mxCell id="WLSEUAi24ckMVF-0yB9R-19" value="" style="edgeStyle=orthogonalEdgeStyle;rounded=0;orthogonalLoop=1;jettySize=auto;html=1;" edge="1" parent="1" source="WLSEUAi24ckMVF-0yB9R-16" target="WLSEUAi24ckMVF-0yB9R-18">
          <mxGeometry relative="1" as="geometry" />
        </mxCell>
        <mxCell id="WLSEUAi24ckMVF-0yB9R-16" value="Avalia Estatísticas&lt;br&gt;Redes Sociais" style="whiteSpace=wrap;html=1;rounded=1;" vertex="1" parent="1">
          <mxGeometry x="-194" y="70" width="120" height="60" as="geometry" />
        </mxCell>
        <mxCell id="WLSEUAi24ckMVF-0yB9R-22" value="" style="edgeStyle=orthogonalEdgeStyle;rounded=0;orthogonalLoop=1;jettySize=auto;html=1;" edge="1" parent="1" source="WLSEUAi24ckMVF-0yB9R-18" target="WLSEUAi24ckMVF-0yB9R-21">
          <mxGeometry relative="1" as="geometry" />
        </mxCell>
        <mxCell id="WLSEUAi24ckMVF-0yB9R-18" value="Avalia Mídias Restritivas" style="whiteSpace=wrap;html=1;rounded=1;" vertex="1" parent="1">
          <mxGeometry x="-194" y="170" width="120" height="60" as="geometry" />
        </mxCell>
        <mxCell id="WLSEUAi24ckMVF-0yB9R-24" value="" style="edgeStyle=orthogonalEdgeStyle;rounded=0;orthogonalLoop=1;jettySize=auto;html=1;" edge="1" parent="1" source="WLSEUAi24ckMVF-0yB9R-21" target="WLSEUAi24ckMVF-0yB9R-23">
          <mxGeometry relative="1" as="geometry" />
        </mxCell>
        <mxCell id="WLSEUAi24ckMVF-0yB9R-21" value="Apresenta Score&lt;br&gt;Relatório Final" style="whiteSpace=wrap;html=1;rounded=1;" vertex="1" parent="1">
          <mxGeometry x="-194" y="270" width="120" height="60" as="geometry" />
        </mxCell>
        <mxCell id="WLSEUAi24ckMVF-0yB9R-26" value="" style="edgeStyle=orthogonalEdgeStyle;rounded=0;orthogonalLoop=1;jettySize=auto;html=1;" edge="1" parent="1" source="WLSEUAi24ckMVF-0yB9R-23" target="WLSEUAi24ckMVF-0yB9R-25">
          <mxGeometry relative="1" as="geometry" />
        </mxCell>
        <mxCell id="WLSEUAi24ckMVF-0yB9R-23" value="Desenvolver Parecer" style="whiteSpace=wrap;html=1;rounded=1;" vertex="1" parent="1">
          <mxGeometry x="-194" y="370" width="120" height="60" as="geometry" />
        </mxCell>
        <mxCell id="WLSEUAi24ckMVF-0yB9R-28" style="edgeStyle=orthogonalEdgeStyle;rounded=0;orthogonalLoop=1;jettySize=auto;html=1;exitX=0;exitY=0.5;exitDx=0;exitDy=0;" edge="1" parent="1" source="WLSEUAi24ckMVF-0yB9R-25" target="WLSEUAi24ckMVF-0yB9R-27">
          <mxGeometry relative="1" as="geometry" />
        </mxCell>
        <mxCell id="WLSEUAi24ckMVF-0yB9R-30" value="" style="edgeStyle=orthogonalEdgeStyle;rounded=0;orthogonalLoop=1;jettySize=auto;html=1;entryX=0.5;entryY=0;entryDx=0;entryDy=0;" edge="1" parent="1" source="WLSEUAi24ckMVF-0yB9R-25" target="WLSEUAi24ckMVF-0yB9R-29">
          <mxGeometry relative="1" as="geometry">
            <mxPoint x="-134" y="594.5" as="targetPoint" />
          </mxGeometry>
        </mxCell>
        <mxCell id="WLSEUAi24ckMVF-0yB9R-25" value="Armazenar?" style="rhombus;whiteSpace=wrap;html=1;rounded=1;" vertex="1" parent="1">
          <mxGeometry x="-174" y="470" width="80" height="80" as="geometry" />
        </mxCell>
        <mxCell id="WLSEUAi24ckMVF-0yB9R-36" style="edgeStyle=orthogonalEdgeStyle;rounded=0;orthogonalLoop=1;jettySize=auto;html=1;exitX=0.5;exitY=1;exitDx=0;exitDy=0;exitPerimeter=0;entryX=0;entryY=0.5;entryDx=0;entryDy=0;" edge="1" parent="1" source="WLSEUAi24ckMVF-0yB9R-27" target="WLSEUAi24ckMVF-0yB9R-29">
          <mxGeometry relative="1" as="geometry" />
        </mxCell>
        <mxCell id="WLSEUAi24ckMVF-0yB9R-27" value="" style="shape=cylinder3;whiteSpace=wrap;html=1;boundedLbl=1;backgroundOutline=1;size=15;" vertex="1" parent="1">
          <mxGeometry x="-314" y="470" width="60" height="80" as="geometry" />
        </mxCell>
        <mxCell id="WLSEUAi24ckMVF-0yB9R-29" value="Fim" style="ellipse;whiteSpace=wrap;html=1;rounded=1;" vertex="1" parent="1">
          <mxGeometry x="-174" y="590" width="80" height="80" as="geometry" />
        </mxCell>
        <mxCell id="WLSEUAi24ckMVF-0yB9R-35" style="edgeStyle=orthogonalEdgeStyle;rounded=0;orthogonalLoop=1;jettySize=auto;html=1;exitX=1;exitY=0.5;exitDx=0;exitDy=0;entryX=0;entryY=0.5;entryDx=0;entryDy=0;" edge="1" parent="1" source="WLSEUAi24ckMVF-0yB9R-32" target="WLSEUAi24ckMVF-0yB9R-10">
          <mxGeometry relative="1" as="geometry" />
        </mxCell>
        <mxCell id="WLSEUAi24ckMVF-0yB9R-32" value="Início" style="ellipse;whiteSpace=wrap;html=1;rounded=1;" vertex="1" parent="1">
          <mxGeometry x="-753" y="60" width="80" height="80" as="geometry" />
        </mxCell>
      </root>
    </mxGraphModel>
  </diagram>
</mxfile>
